
Genre:Horror | Mystery | Thriller
Language:English
 
http://www.imdb.com/title/tt1760998/

Source:HORRORSPOKE Thanks!

Format : AVI
Format/Info : Audio Video Interleave
File size : 744 MiB
Duration : 1h 25mn
Overall bit rate : 1 211 Kbps

Video
ID : 0
Format : MPEG-4 Visual
Format profile : Advanced Simple@L5
Format settings, BVOP : Yes
Format settings, QPel : No
Format settings, GMC : No warppoints
Format settings, Matrix : Default (H.263)
Codec ID : XVID
Codec ID/Hint : XviD
Duration : 1h 25mn
Bit rate : 976 Kbps
Width : 640 pixels
Height : 360 pixels
Display aspect ratio : 16:9
Frame rate : 29.970 fps
Color space : YUV
Chroma subsampling : 4:2:0
Bit depth : 8 bits
Scan type : Progressive
Bits/(Pixel*Frame) : 0.141
Stream size : 599 MiB (81%)
Writing library : XviD 1.2.1 (UTC 2008-12-04)

Audio
ID : 1
Format : AC-3
Format/Info : Audio Coding 3
Mode extension : CM (complete main)
Codec ID : 2000
Duration : 1h 25mn
Bit rate mode : Constant
Bit rate : 224 Kbps
Channel(s) : 2 channels
Channel positions : Front: L R
Sampling rate : 48.0 KHz
Bit depth : 16 bits
Stream size : 138 MiB (18%)
Alignment : Aligned on interleaves
Interleave, duration : 33 ms (1.00 video frame)
Interleave, preload duration : 512 ms


Plot:
Brendan and Darryl have both moved on with their lives following the events at the cabin in the woods; not unscathed however..
 
http://www.pix2links.com/images/31002223921107683707.png
 
http://www.pix2links.com/images/67936744549981795943.png
 
http://www.pix2links.com/images/72257216916881947749.png